<svg width="378" height="160" viewBox="0 0 378 160" fill="none" xmlns="http://www.w3.org/2000/svg">
<path d="M50 7.5H100C134.518 7.5 162.5 35.4822 162.5 70V90C162.5 124.518 134.518 152.5 100 152.5H80C39.9594 152.5 7.5 120.041 7.5 80V50C7.5 26.5279 26.5279 7.5 50 7.5Z" stroke="#1D94BE" stroke-width="15"/>
<path d="M328 7.5H278C243.482 7.5 215.5 35.4822 215.5 70V90C215.5 124.518 243.482 152.5 278 152.5H298C338.041 152.5 370.5 120.041 370.5 80V50C370.5 26.5279 351.472 7.5 328 7.5Z" stroke="#1D94BE" stroke-width="15"/>
<path d="M273 0H103L160.099 37H218.496L273 0Z" fill="#1D94BE"/>
<path d="M220 18H159V80L178.735 61.0556H200.265L220 80V18Z" fill="#1D94BE"/>
</svg>
